<?xml version="1.0" standalone="no"?>
<!DOCTYPE svg PUBLIC "-//W3C//DTD SVG 20010904//EN"
 "http://www.w3.org/TR/2001/REC-SVG-20010904/DTD/svg10.dtd">
<svg version="1.0" xmlns="http://www.w3.org/2000/svg"
 width="96.000000pt" height="96.000000pt" viewBox="0 0 96.000000 96.000000"
 preserveAspectRatio="xMidYMid meet">
<metadata>
Created by potrace 1.11, written by Peter Selinger 2001-2013
</metadata>
<g transform="translate(0.000000,96.000000) scale(0.100000,-0.100000)"
fill="#000000" stroke="none">
<path d="M407 893 c-2 -5 -19 -52 -37 -106 -35 -108 -72 -161 -118 -170 -19
-4 -35 -18 -50 -46 -19 -33 -29 -41 -52 -41 -25 0 -30 -6 -45 -50 -9 -28 -37
-74 -61 -102 -24 -29 -44 -57 -44 -63 0 -15 165 -236 188 -252 14 -10 41 -3
152 40 l135 52 50 90 c28 50 55 99 62 110 9 16 15 17 35 9 32 -15 45 -8 64 33
10 19 29 39 43 44 32 12 100 85 107 116 8 29 12 29 53 -1 36 -27 56 -25 64 5
9 33 -7 66 -46 98 -37 29 -55 31 -84 9 -6 -5 -28 -6 -47 -2 -32 5 -43 1 -91
-35 l-55 -42 0 50 c0 30 -5 51 -13 54 -7 2 -41 5 -77 5 -36 0 -73 1 -82 1 -16
1 -18 13 -18 101 0 80 -3 100 -14 100 -8 0 -17 -3 -19 -7z"/>
</g>
</svg>
